<svg version="1.2" xmlns="http://www.w3.org/2000/svg" viewBox="0 0 1024 1024" width="1024" height="1024">
	<title>updatepulse</title>
	<style>
		.s0 { fill: #000000 } 
	</style>
	<path class="s0"
     d="m 442.8,388.3 c 22.6,-3.1 26.5,18.1 31,32 l 52.4,155.8 33.1,-49.3 c 9.1,-13.4 13.2,-27.8 33.8,-28.1 28.7,-0.6 182.7,0 211.5,0 H 833 c 10.6,-0.1 20.9,-1.3 29,5.8 5.2,4.6 7.5,10.5 7.4,16.1 2.9,11.9 0.5,27.9 -1.1,38.3 C 836.2,784.6 610.9,927.8 393.2,847.7 312.5,818 245.1,759 203.8,683.7 195,667.6 189.1,650.5 181.5,634 c -9.8,11 -25.3,41.2 -37.2,46.1 -19.4,7.9 -42.9,-13.4 -33,-33.3 8.7,-17.4 32.4,-46.7 44.2,-63.3 10.9,-15.5 15.7,-31 34.7,-37.3 18.1,-3.6 33.2,13.2 46.7,22.6 17.8,12.5 54.5,35.3 69.2,50.1 14.9,15.1 -1.6,45.8 -25.5,38.1 -13.9,-4.5 -34.2,-23.7 -48,-31 l -0.6,-0.4 c 75.2,202.3 338.9,258.8 493.1,111.3 51.9,-49.6 88.6,-120.6 93.4,-192.9 0,-0.86667 0.0333,-1.76667 0.1,-2.7 -2.4,0 -4.6,-0.1 -6.6,-0.1 H 606 c -4.9,6.4 -9.1,13.5 -13.6,20.1 l -38.9,58 c -4.8,7.2 -12,20.5 -18,26.1 -10.8,10.3 -30.3,8.1 -37.6,-4.8 -3.3,-5.7 -4.9,-12.6 -7,-18.8 L 449.1,498 c -4,-11.6 -7.6,-23.2 -11.8,-34.7 -2.9,5 -6.5,9.8 -9.8,14.5 l -11.7,16.4 c -26.5,38.5 -24.8,28.9 -79.9,28.8 -9.4,0 -117.9,1.3 -154,-0.1 -2.7,0.3 -5.5,0.1 -8.2,-0.5 -1.26667,-0.0667 -2.16667,-0.16667 -2.7,-0.3 -8.9,-2.3 -14.4,-9 -15.7,-16.5 -3.5,-11.9 -0.9,-28.7 0.8,-39.4 C 188,240.4 413.2,97.1 631,177.1 c 80.7,29.6 148.1,88.6 189.4,163.9 8.8,16.1 14.7,33.1 22.4,49.7 9.8,-11 25.2,-41.3 37.2,-46.1 19.4,-7.9 42.8,13.3 32.9,33.2 -8.6,17.4 -32.3,46.7 -44.1,63.4 -10.9,15.4 -15.7,31 -34.7,37.3 -18,3.6 -33.2,-13.2 -46.7,-22.6 -17.8,-12.5 -54.5,-35.2 -69.2,-50.1 -14.9,-15 1.6,-45.7 25.4,-38.1 14,4.5 34.3,23.7 48.1,31 l 0.6,0.4 C 717,196.8 453.3,140.5 299.1,288 247.2,337.7 210.6,408.6 205.9,481 l 163.2,-0.9 0.2,-0.2 48.9,-71.5 c 6.4,-9.5 10.5,-18.7 24.6,-20.1 z m -72.9,91.8 c -246.6,-320.06667 -123.3,-160.03333 0,0 z" />
</svg>
