<svg xmlns="http://www.w3.org/2000/svg" version="1.2" viewBox="0 0 40 40"><path d="M20.026 1.712c-2.314 0-4.434.168-7.533 1.328-1.55.58-3.424 1.334-5.9 3.525C4.116 8.756.514 13.562.514 20.005c0 6.442 3.602 11.246 6.079 13.437 2.476 2.191 4.35 2.948 5.9 3.528 3.099 1.16 5.22 1.326 7.533 1.326 2.314 0 4.434-.167 7.533-1.326 1.55-.58 3.424-1.337 5.9-3.528 2.478-2.191 6.079-6.995 6.079-13.437 0-6.443-3.601-11.249-6.078-13.44-2.477-2.191-4.351-2.945-5.9-3.525-3.1-1.16-5.22-1.328-7.534-1.328Zm0 1.459c1.238 0 2.384.004 4.778.9 1.196.448 2.784 1.046 5.064 3.063 1.984 1.755 4.886 5.479 5.605 10.529-10.572-.046 4.31-.05-6.86-.026-2.455.02-3.514 2.396-4.323 3.604l-2.549 3.795-4.033-11.994c-.347-1.07-1.01-1.723-2.16-1.723-1.091 0-1.75.956-2.243 1.688L9.661 17.63l-.016.015c-4.804.016-4.456.006-5.064.01.722-5.046 3.62-8.767 5.603-10.521 2.28-2.017 3.868-2.615 5.065-3.063 2.393-.896 3.54-.9 4.777-.9zm-5.129 13.181c1.409 4.115 2.996 8.799 4.698 13.327.64 1.277 1.91 1.332 2.742.539 2.298-3.456 4.22-6.147 6.193-9.194 2.334-.01 4.787-.002 7.078-.017-.346 5.73-3.585 9.96-5.74 11.867-2.28 2.017-3.868 2.616-5.064 3.064-2.394.896-3.54.9-4.778.9-1.238 0-2.384-.004-4.777-.9-1.197-.448-2.785-1.047-5.065-3.064-2.158-1.91-5.4-6.148-5.74-11.89.112-.017-.257-.035 2.723.007 4.35.031 3.565.326 6.074-2.26.595-.834 1.123-1.538 1.656-2.379z"/></svg>